<mxfile host="app.diagrams.net" modified="2023-11-30T05:18:50.735Z" agent="Mozilla/5.0 (Windows NT 10.0; Win64; x64) AppleWebKit/537.36 (KHTML, like Gecko) Chrome/119.0.0.0 Safari/537.36" etag="poa4fgVEhZLc7B754Lry" version="22.1.5" type="github">
  <diagram name="第 1 页" id="tzKNJKSJunWvhr6yMUcg">
    <mxGraphModel dx="1014" dy="525" grid="1" gridSize="10" guides="1" tooltips="1" connect="1" arrows="1" fold="1" page="1" pageScale="1" pageWidth="827" pageHeight="1169" math="0" shadow="0">
      <root>
        <mxCell id="0" />
        <mxCell id="1" parent="0" />
        <mxCell id="DffCvo3c1r4-YbJdm26E-5" style="edgeStyle=orthogonalEdgeStyle;rounded=0;orthogonalLoop=1;jettySize=auto;html=1;" edge="1" parent="1" source="DffCvo3c1r4-YbJdm26E-1" target="DffCvo3c1r4-YbJdm26E-2">
          <mxGeometry relative="1" as="geometry" />
        </mxCell>
        <mxCell id="DffCvo3c1r4-YbJdm26E-6" value="&lt;font style=&quot;font-size: 14px;&quot;&gt;均摊&lt;/font&gt;" style="edgeLabel;html=1;align=center;verticalAlign=middle;resizable=0;points=[];" vertex="1" connectable="0" parent="DffCvo3c1r4-YbJdm26E-5">
          <mxGeometry x="0.0029" y="-3" relative="1" as="geometry">
            <mxPoint as="offset" />
          </mxGeometry>
        </mxCell>
        <mxCell id="DffCvo3c1r4-YbJdm26E-1" value="&lt;font style=&quot;font-size: 18px;&quot;&gt;Virtual Order&lt;/font&gt;" style="rounded=1;whiteSpace=wrap;html=1;" vertex="1" parent="1">
          <mxGeometry x="160" y="160" width="130" height="60" as="geometry" />
        </mxCell>
        <mxCell id="DffCvo3c1r4-YbJdm26E-7" style="edgeStyle=orthogonalEdgeStyle;rounded=0;orthogonalLoop=1;jettySize=auto;html=1;" edge="1" parent="1" source="DffCvo3c1r4-YbJdm26E-2" target="DffCvo3c1r4-YbJdm26E-3">
          <mxGeometry relative="1" as="geometry" />
        </mxCell>
        <mxCell id="DffCvo3c1r4-YbJdm26E-8" value="&lt;font style=&quot;font-size: 14px;&quot;&gt;均摊&lt;/font&gt;" style="edgeLabel;html=1;align=center;verticalAlign=middle;resizable=0;points=[];" vertex="1" connectable="0" parent="DffCvo3c1r4-YbJdm26E-7">
          <mxGeometry x="-0.0934" y="-2" relative="1" as="geometry">
            <mxPoint as="offset" />
          </mxGeometry>
        </mxCell>
        <mxCell id="DffCvo3c1r4-YbJdm26E-2" value="&lt;font style=&quot;font-size: 18px;&quot;&gt;店子记录&lt;/font&gt;" style="rounded=1;whiteSpace=wrap;html=1;" vertex="1" parent="1">
          <mxGeometry x="160" y="280" width="130" height="60" as="geometry" />
        </mxCell>
        <mxCell id="DffCvo3c1r4-YbJdm26E-9" style="edgeStyle=orthogonalEdgeStyle;rounded=0;orthogonalLoop=1;jettySize=auto;html=1;" edge="1" parent="1" source="DffCvo3c1r4-YbJdm26E-3" target="DffCvo3c1r4-YbJdm26E-4">
          <mxGeometry relative="1" as="geometry" />
        </mxCell>
        <mxCell id="DffCvo3c1r4-YbJdm26E-10" value="&lt;font style=&quot;font-size: 14px;&quot;&gt;汇总&lt;/font&gt;" style="edgeLabel;html=1;align=center;verticalAlign=middle;resizable=0;points=[];" vertex="1" connectable="0" parent="DffCvo3c1r4-YbJdm26E-9">
          <mxGeometry x="-0.0924" y="1" relative="1" as="geometry">
            <mxPoint as="offset" />
          </mxGeometry>
        </mxCell>
        <mxCell id="DffCvo3c1r4-YbJdm26E-3" value="&lt;font style=&quot;font-size: 18px;&quot;&gt;原子记录&lt;/font&gt;" style="rounded=1;whiteSpace=wrap;html=1;" vertex="1" parent="1">
          <mxGeometry x="160" y="400" width="130" height="60" as="geometry" />
        </mxCell>
        <mxCell id="DffCvo3c1r4-YbJdm26E-4" value="&lt;span style=&quot;font-size: 18px;&quot;&gt;物理订单&lt;/span&gt;" style="rounded=1;whiteSpace=wrap;html=1;" vertex="1" parent="1">
          <mxGeometry x="160" y="510" width="130" height="60" as="geometry" />
        </mxCell>
        <mxCell id="DffCvo3c1r4-YbJdm26E-12" style="edgeStyle=orthogonalEdgeStyle;rounded=0;orthogonalLoop=1;jettySize=auto;html=1;" edge="1" parent="1" source="DffCvo3c1r4-YbJdm26E-11" target="DffCvo3c1r4-YbJdm26E-1">
          <mxGeometry relative="1" as="geometry" />
        </mxCell>
        <mxCell id="DffCvo3c1r4-YbJdm26E-11" value="&lt;font style=&quot;font-size: 18px;&quot;&gt;调用平台财务接口&lt;/font&gt;" style="rounded=1;whiteSpace=wrap;html=1;" vertex="1" parent="1">
          <mxGeometry x="160" y="60" width="130" height="60" as="geometry" />
        </mxCell>
      </root>
    </mxGraphModel>
  </diagram>
</mxfile>
